<svg width="367" height="55" viewBox="0 0 367 55" fill="none" xmlns="http://www.w3.org/2000/svg">
<g clip-path="url(#clip0_995_15382)">
<path d="M360.247 31.5538C360.247 27.679 358.717 25.7415 355.882 25.7415C352.641 25.7415 350.706 28.0845 350.706 32.2748V45.116H344.9V13.5762H350.706V25.0206C352.236 22.5425 354.757 21.2358 357.952 21.2358C362.767 21.2358 366.053 24.2546 366.053 30.6978V45.116H360.247V31.5538Z" fill="#1B1B1B"/>
<path d="M342.253 45.1157C335.907 45.9267 332.352 44.1695 332.352 38.5374V26.327H329.111V21.6861H332.352V16.2793H338.157V21.6861H342.253V26.327H338.157V37.9516C338.157 40.4748 339.733 41.1056 342.253 40.7452V45.1157Z" fill="#1B1B1B"/>
<path d="M321.252 13.5762H327.058V45.116H321.252V13.5762Z" fill="#1B1B1B"/>
<path d="M296.52 38.7625C296.52 34.6172 299.895 31.9138 307.546 31.283L311.506 30.9226V30.2467C311.506 26.7773 309.976 25.4707 307.321 25.4707C304.8 25.4707 303.18 26.9125 302.82 29.1203H297.15C298.05 24.2992 302.325 21.2354 307.501 21.2354C313.171 21.2354 317.267 23.7135 317.267 31.1028V38.4471C317.267 41.3307 317.762 43.6286 318.257 45.1155H312.721C312.451 44.2594 312.181 43.0879 312.091 41.2856C310.921 43.8539 308.671 45.566 304.62 45.566C299.49 45.566 296.52 42.5022 296.52 38.7625ZM302.325 38.402C302.325 40.0691 303.54 41.6461 306.331 41.6461C309.661 41.6461 311.506 39.3933 311.506 36.4195V34.6623L308.716 34.8425C304.35 35.1579 302.325 36.1942 302.325 38.402Z" fill="#1B1B1B"/>
<path d="M283.605 45.566C277.485 45.566 271.994 41.2406 271.994 33.4007C271.994 25.741 277.35 21.2354 283.515 21.2354C291.481 21.2354 295.352 27.0927 295.037 35.1579H277.845V35.4733C278.16 39.168 280.77 41.0604 283.605 41.0604C286.081 41.0604 287.971 39.8889 288.826 37.8163H294.722C293.237 42.9978 288.736 45.566 283.605 45.566ZM277.89 30.8325H289.141C288.646 27.4983 286.396 25.741 283.47 25.741C280.68 25.741 278.34 27.4983 277.89 30.8325Z" fill="#1B1B1B"/>
<path d="M244.672 13.5762H250.478V27.0031H263.889V13.5762H269.695V45.116H263.889V31.644H250.478V45.116H244.672V13.5762Z" fill="#1B1B1B"/>
<path d="M231.412 13.5762V45.116H225.606V42.007C223.806 44.35 221.196 45.5665 218.316 45.5665C213.005 45.5665 208.189 41.3312 208.189 33.4012C208.189 25.4261 213.05 21.2358 218.316 21.2358C221.196 21.2358 223.806 22.4524 225.606 24.7503V13.5762H231.412ZM213.995 33.4012C213.995 38.3574 216.56 41.0608 219.801 41.0608C223.041 41.0608 225.606 38.3574 225.606 33.4012C225.606 28.4449 223.041 25.7415 219.801 25.7415C216.56 25.7415 213.995 28.4449 213.995 33.4012Z" fill="#1B1B1B"/>
<path d="M194.023 45.1159V21.6864H199.829V26.5976C201.404 22.8128 204.465 21.1908 208.38 21.5062V26.5976C203.88 25.9668 199.829 26.958 199.829 34.2122V45.1159H194.023Z" fill="#1B1B1B"/>
<path d="M183.957 21.6862H189.763V45.1158H183.957V21.6862ZM183.867 18.8476V12.9902H189.808V18.8476H183.867Z" fill="#1B1B1B"/>
<path d="M157.805 13.5762H163.61V24.7503C165.411 22.4073 168.021 21.2358 170.901 21.2358C176.167 21.2358 181.027 25.4261 181.027 33.4012C181.027 41.3312 176.167 45.5665 170.901 45.5665C168.021 45.5665 165.411 44.35 163.61 42.0521V45.116H157.805V13.5762ZM163.61 33.4012C163.61 38.3574 166.176 41.0608 169.416 41.0608C172.656 41.0608 175.222 38.3574 175.222 33.4012C175.222 28.4449 172.656 25.7415 169.416 25.7415C166.176 25.7415 163.61 28.4449 163.61 33.4012Z" fill="#1B1B1B"/>
<path d="M143.945 45.566C137.825 45.566 132.334 41.2406 132.334 33.4007C132.334 25.741 137.69 21.2354 143.855 21.2354C151.821 21.2354 155.692 27.0927 155.377 35.1579H138.185V35.4733C138.5 39.168 141.11 41.0604 143.945 41.0604C146.421 41.0604 148.311 39.8889 149.166 37.8163H155.062C153.576 42.9978 149.076 45.566 143.945 45.566ZM138.23 30.8325H149.481C148.986 27.4983 146.736 25.741 143.81 25.741C141.02 25.741 138.68 27.4983 138.23 30.8325Z" fill="#1B1B1B"/>
<path d="M118.256 45.1159V21.6864H124.062V26.5976C125.637 22.8128 128.697 21.1908 132.612 21.5062V26.5976C128.112 25.9668 124.062 26.958 124.062 34.2122V45.1159H118.256Z" fill="#1B1B1B"/>
<path d="M98.9551 53.2263L102.06 45.026L92.6094 21.6865H98.46L104.761 37.8169L110.836 21.6865H116.687L104.806 53.2263H98.9551Z" fill="#1B1B1B"/>
<path d="M77.1719 13.5762H82.9775V40.4751H97.1992V45.116H77.1719V13.5762Z" fill="#1B1B1B"/>
</g>
<g clip-path="url(#clip1_995_15382)">
<path d="M58.9533 10.5794L58.5868 9.81587C57.0547 6.62178 53.7767 4.5581 50.2379 4.5581C47.7646 4.5581 45.4381 5.52214 43.6886 7.27359C41.9392 9.02504 40.9763 11.3531 40.9763 13.8304C40.9763 17.2991 39.113 20.5308 36.1127 22.2652L23.3316 29.6527C22.9321 28.9599 22.7136 28.1668 22.7136 27.3486C22.7136 24.8063 24.7794 22.7392 27.3177 22.7392H29.5941V18.1811H27.3177C22.2685 18.1811 18.1607 22.2937 18.1607 27.3486C18.1607 28.977 18.5932 30.5541 19.3877 31.9318L15.487 34.1869C15.487 34.1869 15.487 34.1858 15.487 34.1846C14.2919 32.1175 13.6602 29.753 13.6602 27.3475C13.6602 19.8072 19.7872 13.6732 27.3188 13.6732C33.5949 13.6732 38.701 8.56125 38.701 2.27791V0H34.1481V2.27905C34.1481 6.0486 31.084 9.1162 27.3188 9.1162C17.2774 9.1162 9.10732 17.2957 9.10732 27.3486C9.10732 30.5541 9.95074 33.7072 11.5454 36.4682C13.1173 39.1883 15.3778 41.4696 18.0833 43.0661C20.8719 44.7116 24.0658 45.581 27.3188 45.581C37.3602 45.581 45.5303 37.4015 45.5303 27.3486H40.9774C40.9774 34.8888 34.8504 41.0229 27.3188 41.0229C24.0294 41.0229 20.8901 39.8219 18.4487 37.7388L38.3891 26.2125C42.7929 23.6668 45.5291 18.9218 45.5291 13.8304C45.5291 12.5712 46.0186 11.3873 46.9087 10.4962C47.7976 9.6062 48.9813 9.11506 50.2391 9.11506C52.0386 9.11506 53.7049 10.1646 54.4835 11.7884L54.85 12.5519C55.3713 13.639 56.085 14.603 56.9352 15.4121C52.8422 17.7766 50.0809 22.2037 50.0809 27.2643V27.6267C50.0809 33.6342 47.7043 39.2863 43.3881 43.5435C38.9855 47.8863 33.1579 50.2291 26.9705 50.1357C20.9072 50.0457 15.248 47.623 11.0343 43.3134C6.82065 39.0048 4.51917 33.2878 4.55332 27.2153C4.58746 21.1553 6.97089 15.4645 11.2642 11.189C15.5587 6.91236 21.2601 4.55696 27.3177 4.55696H29.5941V0H27.3177C20.049 0 13.2072 2.82602 8.05334 7.95844C2.90176 13.0886 0.0425634 19.9189 0.000449385 27.1902C-0.0405264 34.4718 2.72193 41.3306 7.7813 46.5029C12.8407 51.6763 19.6324 54.5855 26.9034 54.6938C27.0434 54.6961 27.1834 54.6972 27.3234 54.6972C30.9133 54.6972 34.4076 54.0101 37.7175 52.6518C41.04 51.2889 44.0233 49.3175 46.5843 46.7912C51.7757 41.6713 54.6337 34.8649 54.6337 27.6278V27.2654C54.6337 22.239 58.7177 18.1504 63.7383 18.1504V13.5923C61.71 13.5923 59.832 12.4094 58.9533 10.5794Z" fill="#1B1B1B"/>
</g>
<defs>
<clipPath id="clip0_995_15382">
<rect width="288.88" height="41.0229" fill="white" transform="translate(77.1719 12.9902)"/>
</clipPath>
<clipPath id="clip1_995_15382">
<rect width="63.7379" height="54.6972" fill="white"/>
</clipPath>
</defs>
</svg>
