<svg width="136" height="58" viewBox="0 0 136 58" fill="none" xmlns="http://www.w3.org/2000/svg">
<rect width="136" height="58" fill="white"/>
<path fill-rule="evenodd" clip-rule="evenodd" d="M113.248 23.3156C113.248 21.8135 114.471 20.5957 115.98 20.5957H116.999C117.62 20.5957 118.124 21.0972 118.124 21.7159C118.124 22.3346 117.62 22.8362 116.999 22.8362H115.98C115.714 22.8362 115.499 23.0508 115.499 23.3156V27.9394C115.499 30.2079 117.346 32.0469 119.624 32.0469C121.903 32.0469 123.75 30.2079 123.75 27.9394V23.3156C123.75 23.0508 123.535 22.8362 123.269 22.8362H122.369C121.748 22.8362 121.244 22.3346 121.244 21.7159C121.244 21.0972 121.748 20.5957 122.369 20.5957H123.269C124.777 20.5957 126.001 21.8135 126.001 23.3156V27.9394C126.001 31.4453 123.146 34.2874 119.624 34.2874C116.103 34.2874 113.248 31.4453 113.248 27.9394V23.3156Z" fill="#F2473A"/>
<ellipse cx="52.2349" cy="27.1924" rx="2.62554" ry="2.73834" fill="#F2473A"/>
<path fill-rule="evenodd" clip-rule="evenodd" d="M52.3596 32.0464C52.9811 32.0464 53.4848 32.5479 53.4848 33.1666V35.905C53.4848 38.5859 55.6679 40.7593 58.3608 40.7593H113.872C116.565 40.7593 118.748 38.5859 118.748 35.905V33.1666C118.748 32.5479 119.252 32.0464 119.873 32.0464C120.495 32.0464 120.999 32.5479 120.999 33.1666V35.905C120.999 39.8233 117.808 42.9997 113.872 42.9997H58.3608C54.425 42.9997 51.2344 39.8233 51.2344 35.905V33.1666C51.2344 32.5479 51.7382 32.0464 52.3596 32.0464Z" fill="#F2473A"/>
<path fill-rule="evenodd" clip-rule="evenodd" d="M58.447 15.3346C58.223 15.1115 57.9269 15 57.5588 15C57.2068 15 56.9107 15.1115 56.6707 15.3346C56.4466 15.5576 56.3346 15.8524 56.3346 16.2188V22.6713C55.7745 21.9863 55.0943 21.4525 54.2942 21.0702C53.494 20.6878 52.6298 20.4966 51.7016 20.4966C50.5494 20.4966 49.5012 20.7834 48.557 21.3569C47.6288 21.9305 46.8927 22.7271 46.3485 23.7468C45.8204 24.7505 45.5564 25.8737 45.5564 27.1164C45.5564 28.3591 45.8444 29.4903 46.4206 30.51C46.9967 31.5137 47.7888 32.3103 48.797 32.8998C49.8213 33.4733 50.9495 33.7601 52.1817 33.7601C53.414 33.7601 54.5262 33.4733 55.5184 32.8998C56.5266 32.3103 57.3188 31.5137 57.8949 30.51C58.487 29.4903 58.7831 28.3591 58.7831 27.1164V16.2188C58.7831 15.8524 58.6711 15.5576 58.447 15.3346ZM54.3422 31.0357C53.7021 31.4181 52.9819 31.6093 52.1817 31.6093C51.3816 31.6093 50.6534 31.4181 49.9973 31.0357C49.3572 30.6374 48.8451 30.0957 48.461 29.4106C48.0929 28.7256 47.9089 27.9608 47.9089 27.1164C47.9089 26.272 48.0929 25.5152 48.461 24.8461C48.8451 24.161 49.3572 23.6273 49.9973 23.2449C50.6534 22.8466 51.3816 22.6474 52.1817 22.6474C52.9819 22.6474 53.7021 22.8466 54.3422 23.2449C54.9983 23.6273 55.5104 24.161 55.8785 24.8461C56.2466 25.5152 56.4306 26.272 56.4306 27.1164C56.4306 27.9608 56.2466 28.7256 55.8785 29.4106C55.5104 30.0957 54.9983 30.6374 54.3422 31.0357ZM43.2624 27.69C43.4705 27.4829 43.5745 27.2279 43.5745 26.9252C43.5745 25.6666 43.3344 24.5513 42.8543 23.5795C42.3742 22.6076 41.6861 21.8508 40.7899 21.3091C39.8937 20.7674 38.8295 20.4966 37.5972 20.4966C36.349 20.4966 35.2288 20.7834 34.2366 21.3569C33.2604 21.9146 32.4922 22.7032 31.9321 23.7229C31.388 24.7266 31.1159 25.8657 31.1159 27.1403C31.1159 28.4149 31.404 29.554 31.9801 30.5578C32.5722 31.5615 33.3884 32.3501 34.4286 32.9237C35.4688 33.4813 36.6451 33.7601 37.9573 33.7601C38.6935 33.7601 39.4616 33.6247 40.2618 33.3539C41.078 33.083 41.7581 32.7325 42.3022 32.3023C42.5583 32.1111 42.6863 31.8722 42.6863 31.5854C42.6863 31.2827 42.5423 31.0118 42.2542 30.7728C42.0782 30.6135 41.8381 30.5339 41.5341 30.5339C41.23 30.5339 40.9659 30.6215 40.7419 30.7967C40.4058 31.0517 39.9737 31.2667 39.4456 31.442C38.9335 31.6172 38.4374 31.7049 37.9573 31.7049C36.7411 31.7049 35.7089 31.3623 34.8607 30.6773C34.0285 29.9922 33.5244 29.092 33.3484 27.9767H42.4702C42.7903 27.9767 43.0544 27.8812 43.2624 27.69ZM34.7407 23.5078C35.4768 22.8705 36.429 22.5518 37.5972 22.5518C38.6535 22.5518 39.5096 22.8705 40.1658 23.5078C40.8219 24.1451 41.222 24.9974 41.366 26.0649H33.3724C33.5644 24.9974 34.0205 24.1451 34.7407 23.5078ZM83.0453 20.4727C84.1495 20.4727 85.1417 20.7117 86.0219 21.1896C86.9021 21.6676 87.5902 22.3686 88.0863 23.2927C88.5825 24.2008 88.8305 25.3001 88.8305 26.5907V32.4696C88.8305 32.8201 88.7105 33.1149 88.4704 33.3539C88.2464 33.5769 87.9583 33.6884 87.6063 33.6884C87.2542 33.6884 86.9581 33.5769 86.7181 33.3539C86.494 33.1149 86.382 32.8201 86.382 32.4696V26.5907C86.382 25.3001 86.0299 24.3283 85.3258 23.6751C84.6376 23.0059 83.7175 22.6713 82.5652 22.6713C81.8931 22.6713 81.277 22.8068 80.7168 23.0776C80.1727 23.3485 79.7406 23.7149 79.4206 24.1769C79.1165 24.639 78.9645 25.1568 78.9645 25.7303V32.4696C78.9645 32.8201 78.8525 33.1149 78.6284 33.3539C78.4044 33.5769 78.1083 33.6884 77.7402 33.6884C77.3882 33.6884 77.0921 33.5769 76.8521 33.3539C76.628 33.1149 76.516 32.8201 76.516 32.4696V21.811C76.516 21.4446 76.628 21.1498 76.8521 20.9268C77.0921 20.7037 77.3882 20.5922 77.7402 20.5922C78.1083 20.5922 78.4044 20.7037 78.6284 20.9268C78.8525 21.1498 78.9645 21.4446 78.9645 21.811V22.0739C79.4766 21.5641 80.0847 21.1737 80.7888 20.9029C81.493 20.6161 82.2452 20.4727 83.0453 20.4727ZM98.942 31.6093C98.7499 31.3862 98.5099 31.2747 98.2218 31.2747H97.4056C96.8935 31.2747 96.4614 31.0596 96.1094 30.6295C95.7573 30.1993 95.5813 29.6656 95.5813 29.0283V23.1254H97.6217C97.9577 23.1254 98.2298 23.0298 98.4379 22.8386C98.6459 22.6474 98.7499 22.4085 98.7499 22.1217C98.7499 21.803 98.6459 21.5481 98.4379 21.3569C98.2298 21.1657 97.9577 21.0702 97.6217 21.0702H95.5813V17.6288C95.5813 17.2783 95.4692 16.9915 95.2452 16.7685C95.0211 16.5454 94.7331 16.4339 94.381 16.4339C94.0289 16.4339 93.7409 16.5454 93.5168 16.7685C93.2928 16.9915 93.1808 17.2783 93.1808 17.6288V21.0702H92.0765C91.7405 21.0702 91.4684 21.1657 91.2604 21.3569C91.0523 21.5481 90.9483 21.803 90.9483 22.1217C90.9483 22.4085 91.0523 22.6474 91.2604 22.8386C91.4684 23.0298 91.7405 23.1254 92.0765 23.1254H93.1808V29.0283C93.1808 29.9045 93.3648 30.6932 93.7329 31.3942C94.101 32.0952 94.6051 32.6528 95.2452 33.0671C95.9013 33.4654 96.6215 33.6645 97.4056 33.6645H97.8377C98.2538 33.6645 98.5899 33.553 98.8459 33.33C99.118 33.1069 99.254 32.8201 99.254 32.4696C99.254 32.1191 99.15 31.8323 98.942 31.6093ZM108.697 20.4488C109.545 20.4488 110.209 20.5763 110.689 20.8312C111.169 21.0861 111.409 21.4047 111.409 21.7871C111.409 21.8986 111.401 21.9783 111.385 22.0261C111.241 22.5359 110.921 22.7908 110.425 22.7908C110.345 22.7908 110.225 22.7749 110.065 22.743C109.425 22.6315 108.905 22.5757 108.505 22.5757C107.352 22.5757 106.424 22.8386 105.72 23.3644C105.016 23.8901 104.664 24.5991 104.664 25.4913V32.4696C104.664 32.852 104.56 33.1467 104.352 33.3539C104.16 33.561 103.864 33.6645 103.464 33.6645C103.08 33.6645 102.784 33.5689 102.576 33.3778C102.367 33.1706 102.263 32.8679 102.263 32.4696V21.7871C102.263 21.4047 102.367 21.11 102.576 20.9029C102.784 20.6957 103.08 20.5922 103.464 20.5922C104.264 20.5922 104.664 20.9905 104.664 21.7871V22.2412C105.144 21.6835 105.736 21.2454 106.44 20.9268C107.144 20.6081 107.897 20.4488 108.697 20.4488ZM27.5236 15.0062C27.8757 15.0062 28.1717 15.1257 28.4118 15.3647C28.6518 15.6037 28.7719 15.8984 28.7719 16.2489V32.428C28.7719 32.7785 28.6438 33.0733 28.3878 33.3123C28.1477 33.5512 27.8597 33.6707 27.5236 33.6707C27.1715 33.6707 26.8755 33.5512 26.6354 33.3123C26.3954 33.0733 26.2753 32.7785 26.2753 32.428V20.5506L20.4661 32.3324C20.1941 32.7467 19.834 32.9538 19.3859 32.9538C18.8578 32.9538 18.4737 32.7068 18.2337 32.2129L12.4965 20.7657V32.428C12.4965 32.7785 12.3765 33.0733 12.1364 33.3123C11.8964 33.5512 11.6003 33.6707 11.2483 33.6707C10.8962 33.6707 10.6001 33.5512 10.3601 33.3123C10.12 33.0733 10 32.7785 10 32.428V16.2489C10 15.8984 10.12 15.6037 10.3601 15.3647C10.6001 15.1257 10.8962 15.0062 11.2483 15.0062C11.7284 15.0062 12.0964 15.2292 12.3525 15.6753L19.4819 29.8948L26.4194 15.6753C26.6754 15.2292 27.0435 15.0062 27.5236 15.0062ZM74.0983 31.681C73.8742 31.4739 73.5782 31.3703 73.2101 31.3703H63.6081V25.3957H70.4975C70.8496 25.3957 71.1377 25.2922 71.3617 25.0851C71.6018 24.862 71.7218 24.5832 71.7218 24.2486C71.7218 23.914 71.6018 23.6432 71.3617 23.4361C71.1377 23.213 70.8496 23.1015 70.4975 23.1015H63.6081V17.2942H73.2101C73.5782 17.2942 73.8742 17.1907 74.0983 16.9836C74.3223 16.7764 74.4343 16.5056 74.4343 16.171C74.4343 15.8205 74.3223 15.5417 74.0983 15.3346C73.8742 15.1115 73.5782 15 73.2101 15H62.3599C62.0078 15 61.7117 15.1195 61.4717 15.3585C61.2316 15.5815 61.1116 15.8763 61.1116 16.2427V32.4218C61.1116 32.7723 61.2316 33.0671 61.4717 33.3061C61.7117 33.545 62.0078 33.6645 62.3599 33.6645H73.2101C73.5782 33.6645 73.8742 33.561 74.0983 33.3539C74.3223 33.1308 74.4343 32.844 74.4343 32.4935C74.4343 32.1589 74.3223 31.8881 74.0983 31.681Z" fill="#202020"/>
</svg>
